<svg xmlns="http://www.w3.org/2000/svg" width="37.245" height="35.164" viewBox="0 0 37.245 35.164">
  <g id="Layer_1" data-name="Layer 1" transform="translate(0 0)">
    <path id="Path_352" data-name="Path 352" d="M7.752,13.617a5.889,5.889,0,1,1,5.907-5.889,5.9,5.9,0,0,1-5.907,5.889M7.752,0A7.728,7.728,0,1,0,15.5,7.728,7.74,7.74,0,0,0,7.752,0" transform="translate(0 0)" fill="#7ad1be"/>
    <path id="Path_353" data-name="Path 353" d="M605.492,13.617A5.889,5.889,0,1,1,611.4,7.728a5.9,5.9,0,0,1-5.907,5.889m0-13.617a7.728,7.728,0,1,0,7.752,7.728A7.74,7.74,0,0,0,605.492,0" transform="translate(-575.999 0)" fill="#7ad1be"/>
    <path id="Path_354" data-name="Path 354" d="M7.752,557.087a5.889,5.889,0,1,1,5.907-5.889,5.9,5.9,0,0,1-5.907,5.889m0-13.617A7.729,7.729,0,1,0,15.5,551.2a7.741,7.741,0,0,0-7.752-7.729" transform="translate(0 -523.763)" fill="#7ad1be"/>
    <path id="Path_355" data-name="Path 355" d="M613.254,551.218a7.752,7.752,0,1,1-7.752-7.728A7.74,7.74,0,0,1,613.254,551.218Z" transform="translate(-576.009 -523.782)" fill="#7ad1be"/>
  </g>
</svg>
