<svg xmlns="http://www.w3.org/2000/svg" width="29.139" height="41.627" viewBox="0 0 29.139 41.627">
  <path id="Icon_material-lightbulb-outline" data-name="Icon material-lightbulb-outline" d="M15.825,42.546a2.087,2.087,0,0,0,2.081,2.081h8.325a2.087,2.087,0,0,0,2.081-2.081V40.464H15.825ZM22.069,3a14.563,14.563,0,0,0-8.325,26.516v4.7A2.087,2.087,0,0,0,15.825,36.3H28.313a2.087,2.087,0,0,0,2.081-2.081v-4.7A14.563,14.563,0,0,0,22.069,3ZM28,26.1l-1.769,1.249v4.787H17.907V27.352L16.138,26.1A10.407,10.407,0,1,1,28,26.1Z" transform="translate(-7.5 -3)" fill="#193051"/>
</svg>

